<svg xmlns="http://www.w3.org/2000/svg" viewBox="0 0 36.15 26.56"><defs><style>.cls-1{fill:none;stroke:#fcfbea;stroke-miterlimit:10;}</style></defs><g id="Calque_2" data-name="Calque 2"><g id="Calque_2-2" data-name="Calque 2"><path class="cls-1" d="M.52,6.9,3.68,8.71c3.74,2.15,7.47,4.3,11.22,6.43a6.08,6.08,0,0,0,6.34,0c4.68-2.66,9.34-5.35,14-8l.38-.21c0,.16,0,.27,0,.37q0,7.43,0,14.86a3.73,3.73,0,0,1-3,3.84,4.4,4.4,0,0,1-.89.08H4.46A3.75,3.75,0,0,1,.58,23a4.5,4.5,0,0,1-.08-.9V7.29C.5,7.18.51,7.07.52,6.9Z"/><path class="cls-1" d="M18.07.5H31.41a3.76,3.76,0,0,1,3.69,3,.37.37,0,0,1-.18.49l-15,9.58a3.19,3.19,0,0,1-3.64,0c-5-3.18-10-6.39-15-9.58a.37.37,0,0,1-.18-.49,3.8,3.8,0,0,1,3.29-3L5,.5Z"/></g></g></svg>