<svg xmlns="http://www.w3.org/2000/svg" viewBox="0 0 38.11 38.13"><defs><style>.cls-1{fill:#fcfbea;}</style></defs><g id="Calque_2" data-name="Calque 2"><g id="Calque_2-2" data-name="Calque 2"><path class="cls-1" d="M38.11,6.62V31.49a6.63,6.63,0,0,1-6.62,6.64H16.21V20.8H21V17.1H16.21V14.25A3.53,3.53,0,0,1,17,11.8,2.92,2.92,0,0,1,19.27,11a7.72,7.72,0,0,1,1,.07,7.55,7.55,0,0,1,1.05.35L22.41,7.7a11.43,11.43,0,0,0-1.65-.42,9.69,9.69,0,0,0-1.82-.14A7.94,7.94,0,0,0,13.5,9a6.42,6.42,0,0,0-2,5V17.1H7.93v3.7h3.55V38.13H6.62A6.65,6.65,0,0,1,0,31.49V6.62A6.65,6.65,0,0,1,6.62,0H31.49A6.63,6.63,0,0,1,38.11,6.62Z"/></g></g></svg>