<svg id="Calque_1" data-name="Calque 1" xmlns="http://www.w3.org/2000/svg" viewBox="0 0 1061.83 376.31"><defs><style>.cls-1{fill:#61269e;}</style></defs><path class="cls-1" d="M-134.41,134.42S-133-36,149.4,94.56C214.81,124.81,258.79,49.74,310,72c50,21.76,199.3-47.92,280.28,29.9,26.68,25.64,98.67-62,162-56.65,246.48,21,89.44,376.07,89.44,376.07s-136-68.47-276.06-74c-106.33-4.2-206.38-59.52-243.66-45.63-43.23,16.1-164.3,85.59-274.65,48.78-67.6-22.56-217.65,78-202.81,20C-130.18,271.31-216.8,166.94-134.41,134.42Z" transform="translate(170.88 -45.01)"/></svg>