<svg id="Calque_1" data-name="Calque 1" xmlns="http://www.w3.org/2000/svg" viewBox="0 0 1061.83 376.31"><defs><style>.cls-1{fill:#61269e;}</style></defs><path class="cls-1" d="M854.48,134.42S853.07-36,570.68,94.56C505.27,124.81,461.28,49.74,410.11,72c-50,21.76-199.29-47.92-280.28,29.9-26.68,25.64-98.67-62-162-56.65-246.48,21-89.44,376.07-89.44,376.07s136-68.47,276.06-74c106.34-4.2,206.38-59.52,243.66-45.63,43.24,16.1,164.3,85.59,274.65,48.78,67.6-22.56,217.65,78,202.82,20C850.25,271.31,936.87,166.94,854.48,134.42Z" transform="translate(170.88 -45.01)"/></svg>