<svg xmlns="http://www.w3.org/2000/svg" viewBox="0 0 27.26 36.02"><defs><style>.cls-1{fill:none;stroke:#fcfbea;stroke-miterlimit:10;}</style></defs><g id="Calque_2" data-name="Calque 2"><g id="Calque_2-2" data-name="Calque 2"><path class="cls-1" d="M26.76,13.77a21.9,21.9,0,0,1-2.52,9.67,34.24,34.24,0,0,1-8.43,10.8c-.44.37-1,.68-1.42,1a1.22,1.22,0,0,1-1.53,0A21,21,0,0,1,11.15,34,33.55,33.55,0,0,1,1.62,20.07a18,18,0,0,1-1.1-6.94A12.63,12.63,0,0,1,7,2.35a13.1,13.1,0,0,1,19.37,8A12.83,12.83,0,0,1,26.76,13.77ZM13.62,18.9a5.25,5.25,0,1,0-5.24-5.3A5.26,5.26,0,0,0,13.62,18.9Z"/></g></g></svg>