<svg xmlns="http://www.w3.org/2000/svg" viewBox="0 0 33.35 33.35"><defs><style>.cls-1{fill:none;stroke:#fcfbea;stroke-miterlimit:10;}</style></defs><g id="Calque_2" data-name="Calque 2"><g id="Calque_2-2" data-name="Calque 2"><path class="cls-1" d="M27.23,32.85a24.89,24.89,0,0,1-12.49-4A31.11,31.11,0,0,1,2.21,14a22.78,22.78,0,0,1-1.71-9,.89.89,0,0,1,.16-.48,20.27,20.27,0,0,1,3.19-3A9.25,9.25,0,0,1,5.06.71,1.47,1.47,0,0,1,6.79.86a11.2,11.2,0,0,1,1.5,1.42,15.5,15.5,0,0,1,2.5,4.38,4,4,0,0,1-.43,3.87c-.52.78-1.08,1.54-1.65,2.29a.57.57,0,0,0-.09.63,16.48,16.48,0,0,0,2.56,4.24A25,25,0,0,0,18.42,24a15,15,0,0,0,1.58.72.61.61,0,0,0,.46,0c.54-.36,1.08-.72,1.59-1.12a5,5,0,0,1,2.81-1.23,5.21,5.21,0,0,1,2,.34,14,14,0,0,1,4.7,2.8,7.43,7.43,0,0,1,.87,1,1.55,1.55,0,0,1,.15,1.82,10.58,10.58,0,0,1-1.21,1.81c-.78.89-1.64,1.71-2.48,2.55a.82.82,0,0,1-.47.19C28.08,32.87,27.7,32.85,27.23,32.85Z"/><path class="cls-1" d="M15.48,2.46a15.71,15.71,0,0,1,9.82,3.9A16.07,16.07,0,0,1,31,18.5a1.16,1.16,0,0,1-1.3,1.34,1.12,1.12,0,0,1-1.11-1.12,22.15,22.15,0,0,0-.24-2.44A13.71,13.71,0,0,0,18.84,5.46,13.42,13.42,0,0,0,15,4.76l-.5,0a1.09,1.09,0,0,1-1-1.09,1.08,1.08,0,0,1,1-1.17A8.46,8.46,0,0,1,15.48,2.46Z"/><path class="cls-1" d="M15.07,7.52a10.92,10.92,0,0,1,10.68,9.09,11.61,11.61,0,0,1,.18,1.87,1.13,1.13,0,0,1-1.19,1.24,1.14,1.14,0,0,1-1.22-1.22,8.77,8.77,0,0,0-7.61-8.6c-.41-.06-.83-.05-1.24-.08a1.12,1.12,0,0,1-1-1.08,1,1,0,0,1,.77-1.18A3.77,3.77,0,0,1,15.07,7.52Z"/></g></g></svg>