<svg id="Calque_1" data-name="Calque 1" xmlns="http://www.w3.org/2000/svg" viewBox="0 0 471.02 238"><defs><style>.cls-1{fill:#5b358b;}</style></defs><path class="cls-1" d="M175.79,432.64c-3.27-9.67-6-19.24-8.61-28.86a571.17,571.17,0,0,1-13.92-66c-3.06-21-4.87-42.14-3.54-63.4,1-15.66,3.48-31,10.2-45.43,9.45-20.29,25.23-31.86,47.57-34.2,6.33-.66,11.92,1.71,17.14,5,6.13,3.9,11.36,8.92,17,13.47,5.26,4.26,10.73,8.17,17.35,10,7.51,2.12,14.66.82,21.53-2.59A126.78,126.78,0,0,1,309.62,210c13.4-3,26.59-1.82,39.71,1.75,6.41,1.74,12.8,3.54,19.43,4.38,8.53,1.08,16.8,0,24.19-4.17,9-5.07,18.09-4.95,27.47-2.17,8.92,2.64,17.7,5.73,26.62,8.34,9.56,2.8,19.22,3.89,28.91.39,4-1.43,7.33-3.9,10.93-5.95,20.68-11.77,42.81-15.34,66.21-11.72,18.83,2.92,36.13,9.8,52.31,19.8,8.71,5.38,13,13.21,14.32,23,1.44,11-.05,21.91-1.77,32.76-2.64,16.65-6.2,33.15-8,49.93-1.71,15.5-2.12,31,.63,46.48,1.63,9.14-2.38,13.3-11.61,12.2-9.79-1.17-19.1-4.33-28.52-7-13.86-3.89-27.77-7.48-42.18-8.58-12.39-.94-24.67-.31-36.37,4.26C481,378,470.15,377,459.3,374c-16.58-4.55-31.58-12.61-46.24-21.32-8.65-5.14-17.24-10.37-25.7-15.8-4.53-2.91-8.87-2.67-13.45-.47-6.34,3-11.91,7.27-17.6,11.3-9.57,6.78-19.17,13.49-30.08,18.06-12.78,5.36-25.67,6.49-39.19,2.59-27.2-7.85-51.41-1.13-73.06,16.26-15.66,12.58-27.55,28.28-37,45.91C176.65,431.16,176.27,431.79,175.79,432.64Z" transform="translate(-149.28 -194.64)"/></svg>