<svg xmlns="http://www.w3.org/2000/svg" viewBox="0 0 38.13 38.13"><defs><style>.cls-1{fill:#fcfbea;}</style></defs><g id="Calque_2" data-name="Calque 2"><g id="Calque_2-2" data-name="Calque 2"><path class="cls-1" d="M31.51,0H6.62A6.65,6.65,0,0,0,0,6.62V31.49a6.65,6.65,0,0,0,6.62,6.64H31.51a6.64,6.64,0,0,0,6.62-6.64V6.62A6.65,6.65,0,0,0,31.51,0ZM28.87,14.06c-.79.8-3.82-.18-3.82-.18v9.58c.05,8.12-8.12,7.86-8.12,7.86s-7.79,0-7.79-7.79,7.79-7.9,7.79-7.9V21a2.33,2.33,0,0,0-2,2.49,2.17,2.17,0,0,0,2.45,2.2,2.11,2.11,0,0,0,2.24-2L19.57,6h4.55C25.21,10.33,28.87,9,28.87,9Z"/></g></g></svg>