<svg width="56" height="57" viewBox="0 0 56 57" fill="none" xmlns="http://www.w3.org/2000/svg">
<path d="M55.9969 28.5715C55.9969 34.8302 56.0074 41.0889 55.993 47.3463C55.9838 51.6374 53.5208 55.1438 49.5999 56.5026C48.6013 56.849 47.5701 56.9955 46.5179 56.9955C34.1767 56.9955 21.8368 57.0075 9.49557 56.9902C4.06047 56.9835 0.0112958 52.8337 0.00736969 47.2944C-0.00179132 34.7556 -0.00310004 22.2168 0.00736969 9.6767C0.0139133 4.13736 4.07224 0.0114986 9.5152 0.007502C21.8342 -0.0031557 34.1531 -0.00182348 46.4721 0.007502C51.9464 0.0114986 55.9864 4.14269 55.9956 9.72999C56.0048 16.01 55.9969 22.2901 55.9969 28.5715Z" fill="#61269E"/>
<path d="M39.9862 14.6107C40.1275 14.7626 40.2688 14.9145 40.4115 15.0663C40.8551 15.3101 41.2294 15.6512 41.626 15.9602C42.5552 16.6876 43.5877 17.1872 44.7237 17.471C44.9776 17.5349 45.2354 17.5882 45.42 17.8C45.4448 17.8227 45.471 17.844 45.4985 17.8626C45.6752 18.4275 45.577 19.0083 45.5848 19.5812C45.6019 20.6896 45.594 21.7993 45.5888 22.9077C45.5835 23.9562 45.5181 24.0268 44.5091 23.9136C41.9361 23.6271 39.4352 23.0743 37.141 21.7793C36.6306 21.4916 36.1477 21.1572 35.6648 20.8215C35.441 21.1066 35.5208 21.3823 35.5208 21.6381C35.5156 26.3848 35.564 31.1315 35.5038 35.8781C35.4462 40.425 33.4596 44.0033 29.9313 46.725C27.5533 48.5595 24.8116 49.4254 21.8735 49.4254C19.3189 49.4254 16.8546 48.8486 14.7279 47.2566C14.4151 46.9928 14.1024 46.729 13.7896 46.4652C11.57 43.9021 10.4942 40.9312 10.4065 37.4954C10.2508 31.3473 14.4465 25.5482 20.5596 23.8576C21.3618 23.6351 22.1876 23.5592 23.0042 23.4286C23.2032 23.3967 23.3956 23.4273 23.5618 23.5592C23.5866 23.5738 23.6102 23.5872 23.635 23.6018C23.7371 23.7843 23.7332 23.9855 23.7332 24.1853C23.7371 25.7387 23.745 27.292 23.7306 28.8454C23.724 29.6341 23.6023 29.73 22.842 29.6567C21.4927 29.5262 20.1957 29.6434 18.9839 30.3535C15.4255 32.441 15.063 37.3862 18.2837 40.0866C18.569 40.3251 18.8543 40.5649 19.1527 40.7873C19.2286 40.8673 19.3045 40.9472 19.3804 41.0271C19.7482 41.3029 20.112 41.584 20.4653 41.8811C23.7934 44.6894 28.866 42.8376 29.7363 38.5013C29.8593 37.8898 29.9025 37.2743 29.9012 36.6495C29.8973 27.5984 29.8986 18.5474 29.8986 9.49636C29.8986 7.38614 29.7795 7.53135 31.7975 7.53001C32.7777 7.52868 33.7593 7.52469 34.7395 7.53268C35.0183 7.53534 35.3127 7.49937 35.5483 7.71386C35.5705 7.72452 35.5902 7.73917 35.6059 7.75649C35.742 7.9017 35.7669 8.0962 35.831 8.27339C36.3244 10.2291 37.1489 12.0009 38.5989 13.4211C39.036 13.846 39.5098 14.231 39.9862 14.6107Z" fill="#FEFEFE"/>
<path d="M14.7266 47.2581C15.8311 47.7083 16.8637 48.3185 18.0206 48.6622C26.827 51.2747 35.5051 44.5217 35.386 35.1842C35.3232 30.2843 35.3742 25.3831 35.3742 20.3647C35.6883 20.5965 35.9356 20.787 36.1908 20.9682C38.0859 22.3177 40.2348 23.0012 42.4766 23.4288C43.288 23.5833 44.1177 23.6433 44.9318 23.7885C45.3597 23.8644 45.4526 23.7205 45.4487 23.3129C45.4317 21.605 45.4408 19.8958 45.4448 18.1879C45.4448 18.08 45.4801 17.9734 45.4997 17.8655C45.8335 17.8029 46.1384 17.9414 46.4538 18.0054C46.7692 18.1293 47.1147 17.9761 47.4288 18.1106C47.6683 18.0693 47.7298 18.1972 47.7298 18.4144C47.7259 20.7644 47.7259 23.1131 47.7272 25.4631C47.7272 25.6269 47.6617 25.7095 47.4942 25.6896C47.1801 25.5643 46.8386 25.7175 46.5258 25.5856C43.3495 25.2712 40.3578 24.4266 37.7652 22.407C37.5545 22.5855 37.6566 22.8213 37.6566 23.0185C37.654 27.7625 37.6631 32.5065 37.6579 37.2491C37.6579 37.7114 37.5781 38.1737 37.5362 38.6373C37.4184 38.9051 37.5624 39.2062 37.4315 39.4713C37.2653 41.2045 36.6018 42.7645 35.793 44.2699C35.1936 45.3863 34.3887 46.3588 33.4988 47.2354C32.3223 48.3944 30.9573 49.2897 29.447 49.9651C28.1959 50.5246 26.9264 50.9576 25.5523 51.0215C25.3167 51.1255 25.068 51.0549 24.8259 51.0748C24.0878 51.0402 23.3471 51.1454 22.6129 51.0136C20.0858 50.8577 17.8937 49.8252 15.8848 48.3265C15.4621 48.0108 15.042 47.691 14.7266 47.2581Z" fill="#FFBD36"/>
<path d="M35.5481 7.7127C33.9593 7.7207 32.3692 7.75667 30.7818 7.72336C30.2164 7.71137 30.0554 7.84726 30.0567 8.44542C30.0777 17.9987 30.0751 27.5533 30.0685 37.1066C30.0672 40.0854 28.3515 42.4315 25.645 43.2015C23.3195 43.8636 20.7583 42.975 19.3789 41.026C21.8668 41.9945 24.1309 41.6561 26.0782 39.7564C27.3608 38.5041 27.8515 36.9081 27.8502 35.1216C27.8437 25.6496 27.8555 16.1762 27.8306 6.70422C27.8293 6.00081 28.0138 5.83828 28.6813 5.85294C30.7294 5.89956 32.7789 5.88091 34.827 5.86093C35.2314 5.85693 35.4133 5.95152 35.4185 6.39248C35.4225 6.83211 35.501 7.27174 35.5481 7.7127Z" fill="#D4A7FF"/>
<path d="M23.5639 23.5581C19.7359 23.8206 16.5178 25.3566 13.9252 28.2608C9.80406 32.8783 9.43238 40.352 13.0902 45.3664C13.3441 45.7155 13.7014 46.0046 13.7904 46.4668C11.067 44.4525 9.35779 41.7401 8.65762 38.4163C7.02304 30.6628 11.9346 23.297 19.626 21.8862C20.7017 21.689 21.7906 21.6824 22.8808 21.729C23.3846 21.7503 23.7144 21.8715 23.6045 22.499C23.5443 22.8441 23.5744 23.2038 23.5639 23.5581Z" fill="#D4A7FF"/>
<path d="M19.1546 40.7845C17.5187 40.0998 16.5908 38.7702 16.1236 37.1209C14.879 32.7273 18.6494 28.6094 23.0676 29.518C23.5649 29.6206 23.599 29.4514 23.599 29.0424C23.599 27.2279 23.6212 25.4148 23.6356 23.6003C23.8725 23.599 24.1094 23.599 24.3475 23.5977C24.5792 23.6909 24.8213 23.6243 25.0582 23.6443C25.2951 23.6803 25.5476 23.563 25.7727 23.7216C25.9638 23.9027 25.8696 24.1372 25.8696 24.345C25.8774 26.4859 25.8748 28.6281 25.8748 30.7689C25.8748 31.5643 25.8735 31.5656 25.104 31.3978C24.9352 31.3604 24.7676 31.3178 24.5988 31.2792C24.2533 31.2019 23.9078 31.2019 23.5623 31.2792C22.3635 31.4657 21.1687 31.7694 20.2801 32.6207C19.3325 33.5266 18.5081 34.5804 18.3078 35.9792C18.283 36.1524 18.2214 36.3216 18.1756 36.4921C18.0932 36.981 18.105 37.4713 18.1691 37.9616C18.3104 38.9687 18.5656 39.9372 19.1546 40.7845Z" fill="#FFBD36"/>
<path d="M39.9846 14.6105C38.5346 13.8991 37.5831 12.6774 36.8097 11.3039C36.281 10.3647 35.87 9.36289 35.713 8.27581C35.5729 7.9321 35.6947 7.78822 36.0506 7.79621C36.5231 7.80687 36.9968 7.79222 37.4693 7.80287C37.782 8.08131 37.5007 8.4823 37.6643 8.79138C37.9312 10.5619 38.422 12.2525 39.3878 13.7712C39.5711 14.0603 39.7844 14.332 39.9846 14.6105Z" fill="#FFBD36"/>
<path d="M45.4186 17.8015C43.4726 17.4152 41.7568 16.5892 40.4102 15.0665C40.8237 15.0305 41.1234 15.3249 41.4794 15.4542C42.5656 15.8498 43.678 16.1163 44.8284 16.1762C45.3257 16.2015 45.5207 16.3707 45.45 16.8796C45.4069 17.1821 45.4265 17.4938 45.4186 17.8015Z" fill="#D4A7FF"/>
<path d="M37.532 7.86461C37.0648 7.86461 36.5976 7.87793 36.1317 7.85795C35.8215 7.84463 35.7116 7.99117 35.7129 8.2776C35.5925 8.12173 35.5703 7.94455 35.6043 7.75537C36.2521 7.75937 36.8986 7.76336 37.5464 7.76869C37.587 7.79667 37.5988 7.82065 37.5804 7.84063C37.5647 7.85662 37.549 7.86461 37.532 7.86461Z" fill="#FFBD36"/>
<path d="M22.6094 51.0107C23.3606 51.0121 24.1131 51.0134 24.8643 51.0147C24.9062 51.0414 24.9193 51.0654 24.9036 51.088C24.8879 51.1093 24.8721 51.1187 24.8564 51.1187C24.1065 51.1133 23.3488 51.2559 22.6094 51.0107Z" fill="#FFBD36"/>
<path d="M18.1659 37.9592C17.9853 37.4689 17.9853 36.9787 18.1724 36.4897C18.1698 36.98 18.1685 37.4703 18.1659 37.9592Z" fill="#FFBD36"/>
<path d="M37.5352 7.86447C37.543 7.8325 37.5482 7.80053 37.5496 7.76855C37.793 8.08562 37.6503 8.44798 37.666 8.79303C37.4462 8.50927 37.6071 8.16955 37.5352 7.86447Z" fill="#FFBD36"/>
<path d="M23.5586 31.2794C23.9041 31.1009 24.2496 31.0996 24.5951 31.2794C24.2496 31.2794 23.9041 31.2794 23.5586 31.2794Z" fill="#FFBD36"/>
<path d="M47.4242 18.109C47.0983 18.0783 46.7542 18.2276 46.4492 18.0037C46.7777 17.9917 47.1127 17.9398 47.4242 18.109Z" fill="#FFBD36"/>
<path d="M46.5234 25.5829C46.848 25.6043 47.1883 25.4697 47.4919 25.6869C47.1647 25.6988 46.831 25.7681 46.5234 25.5829Z" fill="#FFBD36"/>
<path d="M25.769 23.7216C25.5112 23.7162 25.2534 23.7096 24.9956 23.7042C24.9524 23.6829 24.9367 23.6603 24.9498 23.635C24.9629 23.6097 24.976 23.5977 24.9904 23.5977C25.2573 23.595 25.5361 23.5058 25.769 23.7216Z" fill="#FFBD36"/>
<path d="M37.4282 39.4697C37.4491 39.1899 37.3248 38.8915 37.5329 38.6357C37.5486 38.9195 37.6048 39.2099 37.4282 39.4697Z" fill="#FFBD36"/>
<path d="M24.9903 23.5977C24.9916 23.6336 24.9929 23.6696 24.9955 23.7042C24.7756 23.6842 24.5374 23.7855 24.3438 23.5977C24.5597 23.5977 24.7743 23.5977 24.9903 23.5977Z" fill="#FFBD36"/>
<path d="M24.8555 51.12C24.8581 51.0854 24.8607 51.0508 24.8633 51.0161C25.091 51.0174 25.3188 51.0188 25.5478 51.0188C25.3345 51.1773 25.095 51.14 24.8555 51.12Z" fill="#FFBD36"/>
</svg>
